<?xml version="1.0" standalone="no"?>
<!DOCTYPE svg PUBLIC "-//W3C//DTD SVG 20010904//EN"
 "http://www.w3.org/TR/2001/REC-SVG-20010904/DTD/svg10.dtd">
<svg version="1.0" xmlns="http://www.w3.org/2000/svg"
 width="188.000000pt" height="268.000000pt" viewBox="0 0 188.000000 268.000000"
 preserveAspectRatio="xMidYMid meet">

<g transform="translate(0.000000,268.000000) scale(0.100000,-0.100000)"
fill="#000000" stroke="none">
<path d="M430 2173 c0 -51 -4 -61 -32 -90 -34 -35 -33 -52 2 -33 20 11 21 10
9 -12 -6 -13 -17 -26 -22 -30 -7 -4 -7 -11 0 -20 8 -10 8 -18 -1 -30 -17 -23
-26 -13 -26 31 -1 49 -18 19 -27 -46 -5 -38 -14 -56 -44 -86 -53 -53 -58 -75
-25 -104 15 -13 38 -24 52 -24 13 -1 29 -3 34 -4 6 -1 15 -3 20 -4 6 0 16 -12
22 -26 8 -17 19 -25 36 -25 26 0 92 38 92 53 0 4 6 7 13 7 19 0 58 57 60 88 2
25 -1 27 -33 26 -19 -1 -44 -3 -55 -5 -15 -3 -19 2 -20 21 0 22 5 25 39 28 21
2 48 12 60 23 43 41 53 42 91 4 19 -20 35 -39 35 -43 0 -4 9 -13 20 -20 24
-15 26 -54 4 -73 -8 -7 -13 -21 -11 -30 3 -12 -2 -20 -14 -24 -10 -4 -19 -15
-19 -25 0 -10 -16 -30 -35 -46 -42 -33 -44 -57 -7 -93 35 -35 56 -43 87 -31
14 5 50 12 80 15 48 4 56 3 65 -16 14 -24 15 -23 -32 -42 -21 -9 -38 -20 -38
-26 0 -5 -8 -12 -17 -15 -12 -3 -9 -4 7 -4 14 1 38 -4 54 -11 16 -6 44 -9 62
-5 34 6 34 6 34 -30 0 -20 -7 -45 -16 -55 -61 -72 -136 -135 -144 -121 -3 5
-12 -5 -19 -22 -13 -28 -11 -34 15 -82 25 -46 28 -59 25 -136 -3 -85 -11 -110
-38 -110 -8 0 -25 -8 -38 -17 l-23 -18 37 -10 36 -11 -1 -59 c-1 -35 -10 -85
-23 -119 -12 -32 -20 -61 -16 -64 7 -7 58 19 68 36 5 7 17 10 27 7 15 -5 21 0
26 19 5 21 9 24 25 15 18 -9 19 -5 19 60 0 65 2 72 34 105 18 20 43 36 54 36
11 0 33 11 49 24 15 13 44 31 63 40 19 10 79 63 133 119 91 94 99 106 104 149
5 47 6 47 57 62 66 20 131 84 151 150 14 47 14 57 -10 161 -3 17 -13 20 -57
21 -29 1 -57 3 -63 4 -5 1 -24 2 -42 1 -41 -1 -49 -26 -29 -94 9 -30 13 -71
11 -92 -6 -42 -15 -60 -15 -28 0 10 -17 60 -38 109 -22 50 -42 102 -46 117 -4
16 -22 37 -44 51 -68 45 -112 93 -112 123 0 21 -12 38 -48 70 -29 25 -59 63
-74 95 -14 29 -44 77 -66 107 -30 39 -42 67 -47 105 -4 28 -11 59 -17 69 -9
17 -38 24 -38 9 0 -5 -15 -26 -34 -48 l-33 -39 -109 8 c-144 11 -148 12 -164
43 -8 14 -22 30 -32 35 -16 9 -18 4 -18 -48z"/>
<path d="M458 1283 c-10 -2 -18 -12 -18 -21 -1 -16 -2 -16 -14 1 -7 9 -16 17
-20 17 -4 0 -6 -54 -5 -120 1 -66 0 -123 -3 -126 -3 -3 -24 -7 -47 -9 -46 -5
-84 -22 -76 -34 7 -12 -22 -34 -35 -26 -6 4 -19 -4 -30 -17 -11 -13 -19 -17
-20 -10 0 17 -40 15 -40 -3 0 -20 80 -21 118 -1 15 7 52 19 82 27 30 7 57 15
60 17 3 2 7 45 10 95 4 77 8 92 21 91 13 -1 15 7 11 42 -5 46 5 56 28 29 9
-10 17 -12 23 -6 5 5 17 7 26 4 9 -3 12 -1 6 4 -5 4 -15 17 -21 28 -12 21 -27
26 -56 18z"/>
<path d="M604 1155 c-4 -8 -14 -15 -23 -15 -16 0 -36 -44 -47 -105 -12 -65
-64 -147 -64 -99 0 14 -2 14 -15 0 -9 -8 -15 -19 -14 -23 1 -4 1 -10 -1 -13
-1 -3 -4 -16 -6 -30 -3 -13 -9 -29 -14 -34 -14 -14 -12 -29 2 -20 8 5 9 2 4
-12 -5 -14 1 -11 23 10 24 23 36 28 60 23 17 -4 31 -3 31 1 0 12 93 107 102
105 5 -2 8 2 8 7 0 6 6 10 14 10 8 0 21 7 29 15 11 11 22 12 48 5 52 -15 52
-14 45 52 -5 48 -12 69 -31 88 -20 19 -28 22 -34 12 -11 -19 -58 -5 -64 19 -6
23 -45 26 -53 4z"/>
<path d="M401 928 c0 -9 -11 -29 -23 -43 -22 -24 -58 -37 -199 -69 -15 -3 -30
-13 -33 -22 -7 -18 10 -55 30 -67 8 -4 14 -15 14 -22 0 -8 5 -15 10 -15 12 0
12 -2 1 38 -7 24 -6 35 5 46 11 11 11 16 1 19 -6 3 3 6 22 6 l35 1 -30 -31
-29 -31 52 27 c29 14 55 30 58 35 3 5 19 15 35 24 27 13 30 13 30 -2 0 -14 2
-15 10 -2 6 9 5 20 -3 29 -9 12 -9 13 0 8 15 -9 27 30 20 64 -2 14 -5 17 -6 7z
m-221 -162 c0 -3 -4 -8 -10 -11 -5 -3 -10 -1 -10 4 0 6 5 11 10 11 6 0 10 -2
10 -4z"/>
<path d="M230 730 c-9 -6 -10 -10 -3 -10 6 0 15 5 18 10 8 12 4 12 -15 0z"/>
<path d="M355 730 c-4 -6 -10 -8 -15 -5 -4 3 -11 -2 -14 -11 -4 -11 -13 -14
-30 -10 -28 7 -56 -1 -56 -16 0 -20 82 0 109 26 14 14 23 26 19 26 -4 0 -10
-5 -13 -10z"/>
<path d="M900 614 c0 -8 -4 -12 -10 -9 -5 3 -10 0 -10 -8 0 -12 20 -27 36 -27
2 0 4 14 4 30 0 17 -4 30 -10 30 -5 0 -10 -7 -10 -16z"/>
</g>
</svg>
