<?xml version="1.0" standalone="no"?>
<!DOCTYPE svg PUBLIC "-//W3C//DTD SVG 20010904//EN"
 "http://www.w3.org/TR/2001/REC-SVG-20010904/DTD/svg10.dtd">
<svg version="1.0" xmlns="http://www.w3.org/2000/svg"
 width="188.000000pt" height="268.000000pt" viewBox="0 0 188.000000 268.000000"
 preserveAspectRatio="xMidYMid meet">

<g transform="translate(0.000000,268.000000) scale(0.100000,-0.100000)"
fill="#000000" stroke="none">
<path d="M0 1340 l0 -1340 940 0 940 0 0 698 0 699 -37 0 c-39 0 -162 31 -130
32 9 1 16 4 15 9 -3 7 5 12 23 12 5 0 7 -4 4 -10 -3 -6 4 -10 17 -10 16 0 19
3 10 8 -7 5 -10 15 -7 23 4 11 -4 14 -37 13 -42 -1 -93 17 -81 29 3 4 1 7 -5
7 -7 0 -12 7 -12 15 0 8 -7 15 -15 15 -8 0 -15 4 -15 9 0 10 31 23 46 20 5 -1
11 -1 14 1 3 1 18 3 33 5 16 2 34 9 42 15 14 12 9 50 -8 50 -5 0 -2 9 8 20 14
16 20 17 27 8 5 -9 8 -8 8 6 0 13 5 17 20 13 11 -3 23 -1 26 4 3 5 16 9 30 9
l24 0 0 188 0 187 -21 -34 c-11 -18 -23 -30 -26 -27 -4 4 -1 12 5 18 7 7 12
16 12 20 0 14 -25 3 -38 -17 -12 -18 -13 -18 -7 -1 4 14 2 16 -7 9 -20 -16
-96 -12 -102 4 -3 8 -10 12 -15 9 -4 -3 -23 -1 -40 4 -18 5 -66 10 -107 11
-41 1 -74 5 -74 10 0 4 -8 10 -17 12 -10 3 44 5 120 6 91 1 136 4 132 11 -4 6
-11 8 -16 4 -5 -3 -8 -1 -7 4 2 5 -10 22 -26 36 -15 15 -25 30 -22 33 3 4 13
-2 21 -13 15 -19 20 -8 9 20 -3 9 -10 13 -15 10 -5 -3 -12 8 -15 24 -5 27 -8
28 -30 18 -13 -6 -22 -16 -19 -23 7 -20 -17 -27 -31 -9 -8 12 -14 14 -19 6 -5
-7 -17 0 -35 20 -16 18 -34 29 -40 25 -6 -3 -10 -3 -9 2 3 18 -1 36 -7 30 -4
-4 -18 6 -30 21 -13 15 -24 21 -24 15 0 -31 -19 -8 -40 48 -42 113 -115 205
-192 245 -109 56 -278 56 -365 -1 -47 -31 -108 -100 -136 -155 -16 -30 -42
-77 -58 -105 -16 -27 -28 -57 -27 -65 0 -8 -4 -28 -11 -44 -6 -16 -9 -42 -6
-58 5 -20 1 -35 -14 -54 -20 -25 -21 -26 -21 -5 0 11 -5 21 -11 21 -5 0 -8 4
-5 8 12 20 -43 9 -67 -14 -15 -14 -27 -20 -27 -14 0 5 -7 10 -15 10 -12 0 -13
9 -8 45 5 40 -2 55 -21 43 -2 -2 -13 5 -24 15 -11 10 -26 15 -36 11 -11 -4
-16 -1 -16 11 0 14 -3 15 -15 5 -8 -6 -18 -9 -24 -6 -5 3 -12 0 -14 -6 -4 -8
-6 -7 -6 3 -1 9 -7 19 -15 22 -10 4 -12 -1 -9 -16 4 -22 4 -22 -11 -3 -10 12
-16 15 -16 7 0 -10 -6 -9 -25 3 -16 11 -25 12 -25 5 0 -8 -4 -8 -15 1 -8 7
-15 20 -15 29 0 9 -7 29 -15 45 -8 15 -15 35 -15 42 0 8 -5 14 -12 14 -6 0 -3
6 8 14 17 13 20 13 26 -2 5 -14 7 -12 7 6 1 12 -4 22 -10 22 -5 0 -8 4 -5 9 4
5 3 11 -1 14 -5 2 -3 3 3 1 6 -1 17 2 25 7 10 6 10 9 2 9 -7 0 -13 5 -13 10 0
6 7 10 15 10 9 0 15 -9 15 -22 0 -17 3 -19 9 -9 7 11 9 11 14 0 4 -10 6 -8 6
4 1 10 5 16 9 13 4 -2 14 0 22 5 11 8 6 9 -17 6 -31 -3 -33 -2 -33 29 0 24 4
31 18 30 10 0 16 6 16 17 -1 9 2 17 7 17 13 0 11 -34 -3 -49 -11 -11 -9 -11 9
-2 12 6 23 16 26 23 3 7 5 -2 4 -20 0 -18 -3 -28 -7 -22 -5 8 -10 9 -14 2 -7
-11 18 -24 28 -15 3 4 6 15 6 25 0 10 3 18 8 19 4 0 15 2 25 4 9 2 17 -2 17
-8 0 -5 2 -8 5 -5 3 3 3 12 -1 21 -4 13 -10 14 -24 7 -23 -12 -30 -13 -30 -2
0 8 6 10 49 14 11 1 18 6 15 9 -8 14 16 20 36 9 16 -8 20 -8 18 2 -2 8 8 13
30 14 22 0 38 7 48 22 8 12 11 22 6 22 -6 0 -13 -7 -16 -16 -5 -14 -9 -14 -29
-2 -26 16 -112 25 -103 10 3 -5 -3 -12 -15 -15 -16 -4 -18 -3 -8 9 10 12 -7
14 -119 14 l-131 0 -1 -1340z m310 1320 c0 -5 -2 -10 -4 -10 -3 0 -8 5 -11 10
-3 6 -1 10 4 10 6 0 11 -4 11 -10z m-30 -25 c-7 -8 -17 -15 -23 -15 -6 0 -2 7
9 15 25 19 30 19 14 0z m50 5 c0 -5 -5 -10 -11 -10 -5 0 -7 5 -4 10 3 6 8 10
11 10 2 0 4 -4 4 -10z m632 -147 c14 -14 32 -39 39 -57 17 -44 60 -107 70
-101 12 8 21 -13 14 -34 -9 -29 -100 -47 -150 -30 -27 9 -60 -8 -74 -38 -16
-34 -14 -103 2 -103 20 0 37 21 37 46 0 25 34 38 50 19 6 -7 20 -10 32 -7 17
4 20 2 15 -11 -7 -19 -6 -20 17 -11 9 3 16 12 16 20 0 8 10 14 23 14 13 0 28
5 35 12 7 7 12 10 12 8 1 -3 3 -22 6 -42 4 -25 2 -38 -6 -38 -6 0 -8 -5 -5
-10 3 -6 0 -13 -8 -16 -9 -3 -21 -20 -28 -37 -7 -18 -21 -44 -31 -58 -11 -18
-16 -37 -13 -55 5 -29 -13 -78 -27 -75 -5 0 -17 -7 -28 -16 -11 -10 -28 -25
-38 -34 -10 -9 -26 -15 -35 -13 -10 1 -15 -1 -12 -6 3 -4 -7 -10 -21 -13 -25
-5 -84 33 -84 54 0 6 -10 20 -22 32 -24 23 -35 57 -19 57 5 0 13 -4 16 -10 3
-5 23 -10 43 -11 20 -1 48 -5 62 -9 25 -8 25 -8 -7 -15 -45 -10 -31 -25 23
-25 24 0 44 -4 44 -10 0 -5 5 -10 11 -10 5 0 7 5 4 10 -3 6 1 10 9 10 9 0 16
5 16 10 0 9 -14 14 -32 11 -5 0 -8 6 -8 15 0 8 4 13 8 10 8 -5 42 28 42 40 0
4 -13 4 -29 1 -35 -7 -43 -1 -29 23 17 27 3 51 -26 46 -13 -2 -33 -9 -44 -15
-11 -6 -29 -8 -39 -4 -12 4 -6 -6 15 -29 19 -20 30 -38 25 -40 -4 -3 -27 -3
-51 0 -34 3 -43 9 -48 28 -3 13 -10 21 -15 19 -20 -13 -71 129 -57 160 11 24
61 50 66 35 2 -5 11 -10 20 -10 14 0 15 -2 2 -10 -8 -5 -11 -13 -6 -17 4 -4
17 4 28 20 11 15 24 25 29 21 19 -11 8 13 -15 35 -21 20 -31 22 -69 17 l-45
-7 -4 38 c-3 21 -1 43 3 49 5 6 10 32 11 58 1 26 6 53 13 59 6 7 14 20 18 30
21 55 196 69 249 20z m-911 8 c-8 -5 -12 -18 -8 -30 3 -12 1 -21 -3 -21 -5 0
-11 -8 -13 -17 -3 -11 -5 -8 -4 7 0 14 -1 30 -3 35 -5 22 1 31 22 32 16 2 19
0 9 -6z m3 -120 c3 -4 -3 -16 -13 -25 -17 -16 -18 -15 -16 6 1 13 3 24 4 26 3
5 20 1 25 -7z m547 -24 c-10 -9 -11 -8 -5 6 3 10 9 15 12 12 3 -3 0 -11 -7
-18z m364 -127 c-28 -12 -47 -12 -40 0 3 6 18 10 33 9 24 0 25 -1 7 -9z m-218
-6 c-3 -3 -12 -4 -19 -1 -8 3 -5 6 6 6 11 1 17 -2 13 -5z m786 -81 c-7 -2 -19
-2 -25 0 -7 3 -2 5 12 5 14 0 19 -2 13 -5z m-126 -49 c-3 -3 -12 -4 -19 -1 -8
3 -5 6 6 6 11 1 17 -2 13 -5z m431 -132 c2 -7 -1 -12 -8 -12 -6 0 -9 4 -6 9 4
5 1 12 -4 14 -6 3 -5 4 2 3 6 -1 14 -8 16 -14z m-917 -282 c13 -11 29 -24 35
-28 36 -30 54 -33 93 -12 48 24 93 27 85 6 -4 -9 6 -21 26 -31 30 -16 32 -20
27 -57 -3 -23 -2 -51 3 -64 6 -15 5 -24 -2 -26 -6 -2 -12 -26 -13 -53 -1 -28
-5 -62 -9 -77 -6 -19 -4 -28 4 -28 6 0 8 -4 5 -10 -3 -5 -2 -10 4 -10 16 0 1
-29 -17 -35 -10 -2 -30 -17 -45 -31 -16 -14 -34 -27 -40 -28 -7 -1 -23 -8 -36
-15 -23 -13 -44 -12 -176 5 -104 14 -229 56 -241 82 -17 38 -14 71 6 77 11 4
20 10 20 15 0 5 9 12 20 15 11 3 20 14 20 23 0 22 31 102 50 128 8 11 28 24
43 28 15 3 37 18 49 31 12 14 29 25 39 25 15 0 16 4 6 36 -9 29 -8 37 4 45 8
5 14 9 15 9 1 0 12 -9 25 -20z m649 16 c0 -2 -7 -7 -16 -10 -8 -3 -12 -2 -9 4
6 10 25 14 25 6z m143 -22 c-3 -8 -12 -13 -19 -10 -8 3 -14 2 -14 -3 0 -5 -10
-11 -22 -14 l-23 -6 24 19 c12 11 27 17 32 14 5 -3 9 0 9 5 0 6 4 11 10 11 5
0 7 -7 3 -16z m-260 -291 c-7 -2 -19 -2 -25 0 -7 3 -2 5 12 5 14 0 19 -2 13
-5z m-73 -13 c-20 -13 -43 -13 -35 0 3 6 16 10 28 10 18 0 19 -2 7 -10z m114
-10 c-5 -5 -18 -11 -29 -13 -39 -7 -80 -20 -90 -27 -13 -10 -115 -39 -115 -33
0 11 139 68 180 74 25 3 49 7 55 8 5 0 5 -3 -1 -9z m-910 -855 c-17 -13 -17
-14 -1 -15 9 0 17 -5 17 -11 0 -6 6 -9 13 -6 6 2 20 -10 30 -27 10 -17 16 -23
13 -13 -3 9 -1 17 4 17 15 0 12 -40 -4 -56 -12 -11 -17 -12 -23 -2 -15 24 -59
41 -79 31 -24 -13 -62 6 -58 29 1 12 -3 15 -14 11 -12 -4 -9 2 8 21 15 16 32
25 42 23 10 -3 16 -1 12 4 -3 5 9 9 27 9 31 0 32 -1 13 -15z m306 -150 c-7 -8
-17 -12 -22 -9 -6 4 -5 10 3 15 22 14 33 10 19 -6z m83 -32 c-2 -7 2 -13 7
-13 6 0 10 -4 10 -10 0 -15 -26 -12 -43 5 -8 8 -17 11 -21 8 -3 -4 -6 1 -6 11
0 13 7 17 28 14 15 -2 26 -8 25 -15z"/>
<path d="M370 2676 c0 -2 7 -6 15 -10 8 -3 15 -1 15 4 0 6 -7 10 -15 10 -8 0
-15 -2 -15 -4z"/>
<path d="M463 2662 c1 -12 6 -18 15 -15 7 3 10 9 5 12 -4 3 -11 10 -15 15 -4
4 -6 -1 -5 -12z"/>
<path d="M496 2650 c-8 -17 -11 -28 -6 -25 4 3 10 -1 13 -7 3 -10 9 -8 23 5
11 10 13 17 6 17 -7 0 -12 -5 -12 -11 0 -5 -4 -8 -10 -4 -6 4 -6 15 0 30 13
35 5 31 -14 -5z"/>
<path d="M1440 2320 c0 -5 7 -10 16 -10 8 0 12 5 9 10 -3 6 -10 10 -16 10 -5
0 -9 -4 -9 -10z"/>
<path d="M1500 2250 c0 -5 5 -10 11 -10 5 0 7 5 4 10 -3 6 -8 10 -11 10 -2 0
-4 -4 -4 -10z"/>
<path d="M1820 1665 c-19 -11 -21 -14 -8 -15 12 0 16 -6 12 -17 -3 -10 2 -7
10 7 l15 25 1 -23 c0 -15 -7 -26 -19 -29 -11 -3 -17 -11 -15 -18 3 -8 -4 -19
-16 -25 -12 -6 -19 -14 -16 -17 2 -3 0 -17 -5 -31 -8 -20 -7 -23 4 -14 7 7 18
7 27 2 8 -5 17 -7 21 -4 4 2 12 -3 19 -11 9 -11 9 -15 1 -16 -6 -1 -15 -3 -21
-4 -5 -1 -14 -3 -20 -4 -16 -2 -12 -28 5 -35 9 -3 20 3 27 14 7 11 18 20 24
20 8 0 12 34 13 105 2 95 0 105 -16 105 -10 -1 -29 -7 -43 -15z"/>
<path d="M1744 1535 c-16 -12 -17 -14 -3 -15 9 0 19 7 23 15 7 19 5 19 -20 0z"/>
</g>
</svg>
